Coordinates
version=1
nRows=26
nColumns=22
inDegrees=yes

Units are S.I. units (second, meters, Newtons, ...)
If the header above contains a line with 'inDegrees', this indicates whether rotational values are in degrees (yes) or radians (no).

endheader
time	pelvis_tilt	pelvis_list	pelvis_rotation	pelvis_tx	pelvis_ty	pelvis_tz	hip_flexion_r	hip_adduction_r	hip_rotation_r	knee_angle_r	ankle_angle_r	subtalar_angle_r	hip_flexion_l	hip_adduction_l	hip_rotation_l	knee_angle_l	ankle_angle_l	subtalar_angle_l	lumbar_extension	lumbar_bending	lumbar_rotation
      1.50000000	     -6.95129382	      0.93452643	    -16.38714624	     -1.00880933	      0.86698822	     -0.37735486	     -0.29771954	     -0.43985915	      6.64114536	    -12.47645154	     23.69272345	     -7.27215099	     38.63382272	    -12.90654734	     -8.18530042	    -56.18611580	     11.11032772	      0.31398193	     -4.29330295	     -1.27373573	     19.77080174
      1.51000000	     -6.95182488	      0.99365947	    -16.45706184	     -1.00277540	      0.86621857	     -0.37682452	     -1.13242187	     -0.67327886	      6.53469931	    -11.64781202	     23.68198189	     -6.99469372	     38.99184983	    -12.91734703	     -8.03733889	    -54.04191252	     10.87488435	      0.33939395	     -4.24543465	     -1.34604589	     20.05118883
      1.52000000	     -6.94028430	      1.00297050	    -16.51041062	     -0.99656386	      0.86521256	     -0.37636548	     -1.98395509	     -0.85898497	      6.42552254	    -10.87379506	     23.72473819	     -6.74545446	     39.27534075	    -12.95376211	     -7.77238747	    -51.76962074	     10.65308048	      0.37838552	     -4.22823223	     -1.36763480	     20.31336836
      1.53000000	     -6.92318769	      0.96976296	    -16.56082595	     -0.99018625	      0.86396858	     -0.37595612	     -2.83292912	     -1.00057909	      6.32900519	    -10.17065148	     23.82131331	     -6.52705752	     39.49431266	    -13.02617368	     -7.42124995	    -49.39801137	     10.44776624	      0.42710331	     -4.23113831	     -1.34627731	     20.56202717
      1.54000000	     -6.90223368	      0.90164680	    -16.61291708	     -0.98365459	      0.86250435	     -0.37558992	     -3.66858599	     -1.10588775	      6.24359574	     -9.54673467	     23.95732531	     -6.34483728	     39.65598138	    -13.13835223	     -7.01504391	    -46.95242367	     10.25253842	      0.48323473	     -4.25063035	     -1.29209763	     20.80978076
      1.55000000	     -6.88397362	      0.81258956	    -16.68497776	     -0.97697478	      0.86081821	     -0.37523745	     -4.47519448	     -1.18916999	      6.17646506	     -9.00466448	     24.15493309	     -6.18216357	     39.77017128	    -13.29723453	     -6.59762825	    -44.46282051	     10.06749618	      0.55281211	     -4.27271719	     -1.21948246	     21.07300706
      1.56000000	     -6.85375457	      0.71224935	    -16.78217574	     -0.97016903	      0.85895624	     -0.37490037	     -5.24949677	     -1.26613635	      6.16290642	     -8.57532062	     24.43845151	     -6.00683953	     39.82431602	    -13.49227860	     -6.18940944	    -41.94610894	      9.90548299	      0.65564109	     -4.31676293	     -1.14497426	     21.33243193
      1.57000000	     -6.84941921	      0.60736331	    -16.89107483	     -0.96322428	      0.85688788	     -0.37459874	     -5.96727976	     -1.33412333	      6.16050983	     -8.22110520	     24.74510090	     -5.86581011	     39.87939789	    -13.71955398	     -5.79359803	    -39.44554515	      9.71578776	      0.76172258	     -4.33421732	     -1.06479368	     21.60465608
      1.58000000	     -6.83607818	      0.50177609	    -17.02581298	     -0.95614997	      0.85468529	     -0.37432133	     -6.63326763	     -1.40885878	      6.18594253	     -8.00181610	     25.12277821	     -5.70665661	     39.89352323	    -13.97338379	     -5.43816786	    -36.97687651	      9.55928766	      0.90843392	     -4.36885986	     -0.99256020	     21.87575283
      1.59000000	     -6.82831897	      0.40188978	    -17.16579297	     -0.94891993	      0.85234613	     -0.37409254	     -7.25036650	     -1.49298950	      6.21823093	     -7.88233344	     25.53273340	     -5.52633275	     39.90066639	    -14.23584769	     -5.11293043	    -34.57664161	      9.42374137	      1.09201675	     -4.39722480	     -0.93116674	     22.13484850
      1.60000000	     -6.83195690	      0.30547114	    -17.30135676	     -0.94152626	      0.84987878	     -0.37393727	     -7.81899907	     -1.58351587	      6.25199362	     -7.85579559	     25.97359721	     -5.33782388	     39.92435995	    -14.50170109	     -4.81326843	    -32.28514561	      9.30431969	      1.28842968	     -4.41483591	     -0.87451759	     22.37575908
      1.61000000	     -6.83741046	      0.21665133	    -17.42512828	     -0.93395167	      0.84731099	     -0.37385389	     -8.35589049	     -1.68714749	      6.28270893	     -7.91142498	     26.42608130	     -5.12819324	     39.96476503	    -14.75964247	     -4.54559715	    -30.13587054	      9.22633193	      1.49825033	     -4.43021204	     -0.83238670	     22.58741650
      1.62000000	     -6.84438673	      0.13397055	    -17.53228736	     -0.92620208	      0.84465745	     -0.37386032	     -8.86717632	     -1.80388452	      6.31594518	     -8.03981385	     26.87936731	     -4.89728658	     40.03574469	    -15.00489682	     -4.30686252	    -28.16515845	      9.18720139	      1.70700988	     -4.44595604	     -0.80273579	     22.76251557
      1.63000000	     -6.85311851	      0.04542532	    -17.61800947	     -0.91829127	      0.84193063	     -0.37395581	     -9.35757764	     -1.91905771	      6.33833901	     -8.23831303	     27.33661584	     -4.68967477	     40.15508471	    -15.24540990	     -4.09256961	    -26.41745058	      9.15711314	      1.87520092	     -4.46918430	     -0.77461436	     22.91242177
      1.64000000	     -6.85989871	     -0.05481175	    -17.67945774	     -0.91021739	      0.83915757	     -0.37417156	     -9.84117400	     -2.03061727	      6.38409264	     -8.49102709	     27.76417505	     -4.50602293	     40.32218089	    -15.47804931	     -3.90291321	    -24.91373560	      9.15139548	      2.00518857	     -4.51181006	     -0.73537730	     22.99258999
      1.65000000	     -6.82338153	     -0.11280924	    -17.71669194	     -0.90182814	      0.83640576	     -0.37450013	    -10.39452121	     -2.22011352	      6.36860233	     -8.71319781	     28.13152714	     -4.15343338	     40.47161046	    -15.64253534	     -3.78407418	    -23.64538742	      9.21545618	      2.22213094	     -4.57892255	     -0.76596047	     23.06995384
      1.66000000	     -6.79009477	     -0.20683400	    -17.71929879	     -0.89323443	      0.83364062	     -0.37495405	    -10.96527027	     -2.37890805	      6.35455244	     -8.95118815	     28.44675914	     -3.84484119	     40.68015671	    -15.80866132	     -3.65605915	    -22.66362555	      9.26159598	      2.36542900	     -4.66169930	     -0.76100848	     23.09402588
      1.67000000	     -6.73858965	     -0.31739509	    -17.69193662	     -0.88437810	      0.83092587	     -0.37556350	    -11.58713992	     -2.54110560	      6.33750117	     -9.17363373	     28.68046614	     -3.53965028	     40.90956577	    -15.95115514	     -3.55869435	    -21.96159998	      9.29403182	      2.47420014	     -4.77771883	     -0.74431428	     23.05837159
      1.68000000	     -6.67565854	     -0.42040718	    -17.63539108	     -0.87517841	      0.82827543	     -0.37633445	    -12.27915695	     -2.73686728	      6.30626098	     -9.31846540	     28.79682336	     -3.14547275	     41.14472570	    -16.04332686	     -3.47301068	    -21.52006122	      9.34089673	      2.57796866	     -4.89559059	     -0.74225241	     22.99850320
      1.69000000	     -6.61475545	     -0.52187298	    -17.56154302	     -0.86565162	      0.82570188	     -0.37730046	    -13.00963425	     -2.95885008	      6.28374390	     -9.41778355	     28.79048819	     -2.67762545	     41.40151927	    -16.09409205	     -3.40178596	    -21.35618739	      9.36151834	      2.65935773	     -5.00809051	     -0.73640973	     22.92394504
      1.70000000	     -6.56263721	     -0.60989787	    -17.48989762	     -0.85580340	      0.82323154	     -0.37841656	    -13.73889265	     -3.21850162	      6.25618069	     -9.52118034	     28.71534179	     -1.99032246	     41.66317701	    -16.11177927	     -3.39769339	    -21.43998879	      9.29622151	      2.73272769	     -5.10202345	     -0.74264601	     22.84179759
      1.71000000	     -6.54286031	     -0.70865107	    -17.39871840	     -0.84561702	      0.82084879	     -0.37974174	    -14.48172901	     -3.47833794	      6.25842725	     -9.56901837	     28.47212690	     -1.35574542	     41.97626678	    -16.09754352	     -3.36665591	    -21.81035317	      9.19182473	      2.77375722	     -5.15971670	     -0.72238556	     22.76323482
      1.72000000	     -6.55387432	     -0.80988755	    -17.30664599	     -0.83514518	      0.81860543	     -0.38123634	    -15.20072220	     -3.74434797	      6.33012728	     -9.61938335	     28.06207419	     -0.71914633	     42.32067249	    -16.05844417	     -3.33782308	    -22.43430810	      8.97385506	      2.81176147	     -5.18553959	     -0.68906338	     22.66605148
      1.73000000	     -6.62577946	     -0.84679718	    -17.23585404	     -0.82437417	      0.81645918	     -0.38287786	    -15.82436406	     -4.08456972	      6.40402400	     -9.70142210	     27.54644141	      0.11811308	     42.72082010	    -15.96212177	     -3.35896295	    -23.29290092	      8.59411272	      2.87571147	     -5.11455358	     -0.71125764	     22.63808784
      1.74000000	     -6.72888234	     -0.88070868	    -17.16850732	     -0.81338223	      0.81451180	     -0.38466639	    -16.39068677	     -4.42735353	      6.56677049	     -9.83093781	     26.85799375	      0.90270401	     43.15786906	    -15.84487033	     -3.37928351	    -24.38347607	      8.02750552	      2.95615483	     -5.01771866	     -0.73141969	     22.59766695
      1.75000000	     -6.86950779	     -0.85057893	    -17.12527472	     -0.80216965	      0.81275966	     -0.38654924	    -16.84987624	     -4.83634162	      6.75352644	    -10.04516331	     26.05080837	      1.77333428	     43.63387388	    -15.67714210	     -3.43691743	    -25.67670600	      7.25911446	      3.07760007	     -4.86216999	     -0.82288551	     22.60200937
